<svg xmlns="http://www.w3.org/2000/svg" viewBox="0 0 400 200" width="400" height="200">
  <!-- 沙发底部 - 主体部分 -->
  <rect x="100" y="130" width="270" height="20" rx="5" fill="#e0e0e0" />
  
  <!-- 沙发底部 - 左妃位部分 -->
  <rect x="30" y="130" width="70" height="70" rx="5" fill="#e0e0e0" />
  
  <!-- 沙发座位 - 主体部分 -->
  <rect x="110" y="90" width="250" height="40" rx="5" fill="#f5f5f5" />
  
  <!-- 沙发座位 - 左妃位部分 -->
  <rect x="30" y="90" width="80" height="40" rx="5" fill="#f5f5f5" />
  
  <!-- 沙发靠背 - 主体部分 -->
  <rect x="110" y="40" width="250" height="50" rx="5" fill="#d0d0d0" />
  
  <!-- 沙发靠背 - 左妃位侧面 -->
  <rect x="30" y="40" width="80" height="50" rx="5" fill="#d0d0d0" />
  
  <!-- 扶手 - 右侧 -->
  <rect x="360" y="40" width="20" height="90" rx="5" fill="#d0d0d0" />
  
  <!-- 沙发腿 -->
  <rect x="50" y="200" width="10" height="10" rx="2" fill="#a0a0a0" />
  <rect x="350" y="150" width="10" height="10" rx="2" fill="#a0a0a0" />
  <rect x="130" y="150" width="10" height="10" rx="2" fill="#a0a0a0" />
  
  <!-- 座位分隔线，表示三人座 -->
  <line x1="190" y1="90" x2="190" y2="130" stroke="#e0e0e0" stroke-width="2" />
  <line x1="270" y1="90" x2="270" y2="130" stroke="#e0e0e0" stroke-width="2" />
  
  <!-- 妃位连接处 -->
  <rect x="80" y="40" width="30" height="90" rx="5" fill="#d8d8d8" />
  
  <!-- 沙发轮廓 - 主体 -->
  <path d="M110,40 H360 Q368,40 368,48 V150 Q368,158 360,158 H30 Q22,158 22,150 V48 Q22,40 30,40 H110" fill="none" stroke="#2A9D8F" stroke-width="2" />
</svg> 