<svg xmlns="http://www.w3.org/2000/svg" viewBox="0 0 400 200" width="400" height="200">
  <!-- 沙发底部 - 主体部分 -->
  <rect x="30" y="130" width="270" height="20" rx="5" fill="#e0e0e0" />
  
  <!-- 沙发底部 - 右妃位部分 -->
  <rect x="300" y="130" width="70" height="70" rx="5" fill="#e0e0e0" />
  
  <!-- 沙发座位 - 主体部分 -->
  <rect x="40" y="90" width="250" height="40" rx="5" fill="#f5f5f5" />
  
  <!-- 沙发座位 - 右妃位部分 -->
  <rect x="290" y="90" width="80" height="40" rx="5" fill="#f5f5f5" />
  
  <!-- 沙发靠背 - 主体部分 -->
  <rect x="40" y="40" width="250" height="50" rx="5" fill="#d0d0d0" />
  
  <!-- 沙发靠背 - 右妃位侧面 -->
  <rect x="290" y="40" width="80" height="50" rx="5" fill="#d0d0d0" />
  
  <!-- 扶手 - 左侧 -->
  <rect x="20" y="40" width="20" height="90" rx="5" fill="#d0d0d0" />
  
  <!-- 沙发腿 -->
  <rect x="40" y="150" width="10" height="10" rx="2" fill="#a0a0a0" />
  <rect x="260" y="150" width="10" height="10" rx="2" fill="#a0a0a0" />
  <rect x="340" y="200" width="10" height="10" rx="2" fill="#a0a0a0" />
  
  <!-- 座位分隔线，表示三人座 -->
  <line x1="130" y1="90" x2="130" y2="130" stroke="#e0e0e0" stroke-width="2" />
  <line x1="210" y1="90" x2="210" y2="130" stroke="#e0e0e0" stroke-width="2" />
  
  <!-- 妃位连接处 -->
  <rect x="290" y="40" width="30" height="90" rx="5" fill="#d8d8d8" />
  
  <!-- 沙发轮廓 - 主体 -->
  <path d="M290,40 H40 Q32,40 32,48 V150 Q32,158 40,158 H370 Q378,158 378,150 V48 Q378,40 370,40 H290" fill="none" stroke="#2A9D8F" stroke-width="2" />
</svg> 